<?xml version="1.0" standalone="no"?>
<!DOCTYPE svg PUBLIC "-//W3C//DTD SVG 20010904//EN"
 "http://www.w3.org/TR/2001/REC-SVG-20010904/DTD/svg10.dtd">
<svg version="1.0" xmlns="http://www.w3.org/2000/svg"
 width="1529.000000pt" height="1119.000000pt" viewBox="0 0 1529.000000 1119.000000"
 preserveAspectRatio="xMidYMid meet">

<g transform="translate(0.000000,1119.000000) scale(0.100000,-0.100000)"
fill="#000000" stroke="none">
<path d="M6495 11181 c-74 -19 -146 -78 -167 -138 -7 -18 -15 -33 -19 -33 -3
0 -17 16 -30 35 -13 20 -44 49 -69 66 -166 111 -376 56 -472 -123 -20 -37 -23
-58 -23 -143 l0 -101 -35 13 c-19 6 -46 12 -60 13 -24 0 -25 -2 -22 -54 4 -51
6 -55 32 -61 44 -10 105 -59 124 -100 27 -56 18 -142 -18 -190 -34 -44 -95
-74 -151 -75 l-40 0 -27 -71 c-31 -78 -91 -185 -142 -252 -32 -41 -33 -47 -26
-94 22 -136 129 -230 273 -241 58 -4 67 -7 61 -21 -51 -119 -7 -253 103 -318
40 -24 59 -28 119 -28 l71 0 -9 -34 c-21 -74 17 -171 85 -218 51 -35 138 -43
203 -18 45 17 46 17 68 -4 34 -32 75 -123 93 -204 20 -98 13 -295 -16 -394
-38 -131 -46 -143 -134 -208 -45 -33 -154 -132 -242 -220 -232 -230 -390 -448
-551 -760 -72 -139 -145 -301 -180 -402 -10 -29 -21 -53 -24 -53 -3 0 -5 75
-6 168 0 203 -18 281 -99 448 -117 240 -300 432 -567 592 -46 27 -186 103
-313 167 -301 154 -359 192 -494 320 -54 52 -231 264 -231 278 0 3 32 -3 71
-13 113 -29 224 -89 319 -171 189 -163 207 -173 315 -173 64 -1 88 4 122 22
23 12 47 31 53 41 14 27 12 89 -5 136 -20 55 -20 54 28 37 85 -31 192 12 233
94 14 29 19 60 19 119 -1 104 -20 140 -121 231 -97 85 -781 755 -800 782 -11
16 -11 27 -3 52 9 24 9 42 0 72 -15 48 -52 67 -123 62 -27 -1 -48 -1 -48 1 0
3 22 71 49 152 87 259 97 362 50 488 -30 79 -70 129 -130 159 -131 65 -308 7
-462 -150 l-56 -58 -11 30 c-6 16 -13 35 -15 42 -2 6 -9 12 -14 12 -11 0 -324
-100 -330 -106 -2 -1 4 -24 13 -50 9 -26 16 -48 16 -49 0 -1 -24 5 -53 13 -32
9 -94 14 -162 14 -184 0 -287 -47 -341 -155 -23 -45 -26 -60 -22 -131 7 -142
58 -226 209 -346 l95 -76 -122 -119 c-217 -210 -427 -324 -698 -380 -96 -19
-114 -28 -122 -60 -14 -56 41 -127 136 -175 94 -48 121 -103 121 -250 0 -50
-8 -134 -16 -186 -19 -110 -12 -145 35 -164 28 -12 120 -1 177 21 14 5 27 8
28 7 2 -2 -6 -41 -16 -88 -10 -47 -22 -132 -25 -190 -8 -124 5 -170 82 -300
66 -110 120 -169 165 -179 41 -9 89 7 125 40 l21 20 17 -48 c9 -26 32 -79 49
-118 101 -220 422 -376 529 -256 28 31 41 70 53 154 3 26 11 45 16 42 5 -4 33
-48 63 -98 182 -310 241 -673 157 -967 -16 -58 -48 -150 -71 -205 -23 -55 -60
-146 -83 -203 l-41 -103 -95 -71 c-92 -67 -187 -126 -355 -219 -93 -51 -239
-185 -319 -293 -141 -187 -224 -389 -257 -623 l-12 -81 -82 -23 c-93 -25 -222
-31 -278 -11 -52 18 -115 84 -146 150 -72 156 -23 305 201 612 106 146 157
210 166 210 3 0 17 -48 30 -107 35 -163 56 -193 129 -193 53 0 67 17 217 270
37 63 98 160 134 215 l66 99 0 81 c0 72 -3 84 -29 122 -16 24 -50 56 -77 73
-68 41 -69 57 -14 179 148 330 146 734 -5 1066 -38 83 -141 224 -230 315 -87
88 -190 159 -286 197 -63 25 -81 27 -199 27 -123 0 -136 -2 -237 -36 -139 -48
-232 -91 -375 -176 -152 -90 -239 -124 -442 -173 -212 -50 -425 -117 -451
-141 -28 -26 -26 -79 3 -105 12 -11 67 -44 123 -72 55 -28 111 -62 123 -75
l22 -23 -59 -74 c-32 -41 -100 -115 -150 -166 -50 -50 -94 -103 -98 -117 -13
-53 35 -106 125 -135 29 -9 53 -20 53 -24 0 -4 -3 -42 -7 -86 -14 -154 23
-297 109 -426 55 -82 122 -208 156 -295 18 -45 18 -53 5 -105 -26 -99 -17
-171 24 -202 21 -16 93 -27 120 -18 50 16 84 61 163 219 104 207 164 315 253
451 40 61 84 133 97 160 56 110 94 265 101 400 l2 50 47 -3 c69 -5 157 16 184
44 42 41 33 83 -30 151 -87 91 -125 186 -126 310 0 125 68 233 146 233 55 0
153 -28 218 -63 250 -133 386 -473 303 -757 -26 -90 -32 -94 -105 -80 -115 23
-205 3 -312 -70 -83 -56 -120 -102 -120 -149 0 -53 30 -86 109 -124 37 -18 71
-42 77 -54 14 -29 2 -122 -26 -197 -23 -61 -34 -77 -195 -289 -178 -233 -272
-405 -330 -602 -36 -119 -46 -317 -21 -415 54 -214 220 -376 460 -449 97 -30
236 -51 334 -51 79 0 82 -1 82 -23 0 -13 -9 -52 -21 -88 -86 -263 -267 -395
-570 -417 -134 -10 -165 -25 -195 -94 -17 -39 -19 -67 -16 -300 3 -311 0 -340
-79 -753 -24 -124 -24 -170 -1 -215 27 -55 61 -68 195 -76 100 -6 117 -9 115
-23 -3 -14 -69 -16 -686 -19 -375 -1 -682 -5 -682 -7 0 -3 94 -170 210 -370
115 -201 210 -370 210 -376 0 -6 -88 -182 -195 -391 -107 -209 -195 -382 -195
-384 0 -2 828 -4 1839 -4 l1839 0 20 -67 c11 -38 57 -194 102 -348 45 -154 84
-283 86 -287 2 -3 91 23 197 58 1410 473 2909 667 4321 559 952 -73 1863 -258
2761 -558 l191 -64 89 306 c49 168 95 327 103 354 l14 47 1809 0 c995 0 1809
3 1809 6 0 4 -88 177 -195 386 -107 209 -195 384 -195 388 0 5 93 169 206 366
113 196 208 363 211 370 4 12 -119 14 -777 14 -741 0 -782 1 -775 18 4 9 9 78
12 152 5 126 3 146 -28 290 -33 153 -33 158 -34 435 -1 271 -2 281 -24 324
-30 58 -108 140 -201 211 -72 55 -256 237 -248 245 2 2 33 -6 68 -17 56 -19
88 -22 225 -22 150 -1 165 1 240 27 122 43 220 103 306 187 95 93 151 179 246
377 82 172 107 213 201 323 134 157 244 348 278 479 25 101 8 168 -53 208 -38
25 -159 23 -237 -4 l-59 -21 -22 22 c-23 23 -81 238 -105 390 -6 38 -16 78
-22 90 -30 59 -96 71 -173 34 -34 -17 -50 -20 -63 -12 -27 16 -58 88 -97 224
-42 150 -50 165 -86 180 -52 22 -94 -3 -180 -108 l-35 -44 -52 48 c-146 130
-242 346 -242 541 0 102 24 256 51 328 43 115 160 237 256 269 123 40 273 40
394 -2 63 -22 119 -50 119 -59 0 -3 -16 -23 -35 -44 -47 -53 -82 -125 -96
-200 -10 -56 -9 -75 10 -153 41 -173 135 -343 264 -482 l67 -72 0 -63 c0 -91
25 -242 54 -326 34 -99 113 -249 152 -288 38 -38 109 -65 172 -65 75 0 288 81
375 142 35 25 51 62 37 88 -6 11 -37 29 -69 41 -69 25 -95 49 -110 103 -20 76
24 268 101 438 40 88 42 97 41 183 -1 55 -9 120 -22 169 -12 44 -21 80 -21 82
0 1 22 7 50 14 69 16 127 61 152 116 23 54 18 90 -23 155 -42 67 -40 131 7
227 44 89 53 146 29 191 -22 44 -68 61 -161 61 -66 0 -90 6 -187 44 -178 70
-218 79 -316 73 -48 -3 -115 -15 -151 -27 -36 -12 -103 -24 -150 -27 -84 -6
-87 -5 -255 53 l-170 58 -150 1 c-128 0 -160 -3 -220 -22 -230 -73 -412 -214
-523 -406 -31 -53 -76 -187 -98 -287 -23 -106 -26 -379 -5 -485 22 -113 67
-244 119 -346 58 -113 241 -420 346 -579 l76 -114 -32 -26 c-99 -76 -150 -172
-156 -296 -6 -119 4 -188 35 -224 31 -38 50 -38 127 0 161 79 340 51 450 -71
231 -257 -25 -699 -392 -677 -91 5 -152 30 -211 84 -63 56 -88 107 -101 202
-15 109 -41 210 -80 310 -26 65 -47 97 -105 162 -52 57 -80 99 -99 144 -29 75
-62 228 -71 336 -38 450 -153 878 -331 1231 l-33 66 62 0 c74 -1 117 19 145
65 33 54 42 105 52 277 13 219 17 227 130 263 61 20 93 36 113 58 27 30 28 34
26 139 -1 64 4 117 10 130 13 24 51 45 101 56 53 11 145 61 169 91 25 32 28
102 6 164 -23 67 -19 84 35 143 90 99 110 177 66 260 -14 25 -29 63 -35 84
l-11 38 99 95 c106 104 127 142 118 212 -8 61 -32 82 -87 73 -25 -3 -62 -9
-82 -12 -52 -7 -124 20 -205 76 -126 89 -203 194 -267 364 -54 143 -105 225
-204 326 -173 176 -198 220 -228 394 -16 91 -44 178 -67 208 -35 46 -115 53
-168 14 -123 -89 -204 -134 -314 -172 -141 -48 -191 -54 -420 -47 -246 8 -275
4 -415 -65 l-95 -46 -161 -1 c-190 -2 -246 -8 -297 -37 -48 -27 -67 -56 -74
-118 -5 -44 -1 -64 32 -145 l38 -94 -28 -41 c-55 -78 -42 -218 27 -288 40 -41
64 -46 144 -31 84 16 188 8 253 -20 55 -24 67 -43 52 -83 -13 -34 -13 -34
-143 -63 -124 -28 -165 -48 -206 -102 -42 -55 -38 -116 10 -173 21 -24 63 -77
94 -117 67 -88 103 -112 164 -112 38 0 55 7 105 45 80 60 172 92 329 116 72
10 179 31 239 46 59 14 110 23 114 19 11 -11 -13 -139 -40 -204 -69 -173 -212
-329 -374 -411 -111 -55 -188 -72 -418 -86 -427 -28 -525 -37 -617 -55 -163
-34 -277 -108 -326 -213 -33 -69 -52 -152 -52 -223 0 -59 -1 -62 -28 -67 -15
-3 -59 -2 -97 3 -39 5 -76 9 -83 10 -14 0 -17 4 -133 150 -110 137 -288 315
-419 419 -115 91 -127 109 -161 240 -24 92 -25 239 -3 330 16 68 79 208 111
248 18 22 19 23 69 7 99 -32 200 8 250 99 22 42 26 58 22 112 l-4 63 72 4 c90
4 154 40 198 112 38 61 47 154 22 219 -12 33 -14 54 -7 91 8 44 7 48 -13 56
-33 12 -85 59 -102 91 -17 34 -22 92 -11 133 l8 29 -33 -28 c-18 -16 -48 -34
-66 -42 -31 -13 -32 -16 -26 -51 3 -20 15 -57 25 -81 11 -24 19 -45 19 -47 0
-2 -17 -4 -38 -4 -55 0 -141 -47 -179 -97 -50 -67 -61 -166 -28 -245 6 -16 1
-18 -44 -18 -64 0 -107 -18 -148 -61 -41 -44 -53 -77 -53 -147 0 -43 -5 -61
-21 -78 l-21 -22 -47 20 c-25 11 -86 35 -134 52 l-89 33 83 74 c108 98 226
230 347 392 149 199 182 277 182 437 0 176 -57 284 -189 364 -83 50 -148 66
-270 66 -225 0 -439 -58 -634 -172 -38 -22 -71 -38 -73 -35 -4 4 74 429 80
434 1 2 16 -17 33 -41 43 -61 105 -90 186 -84 44 3 73 11 99 28 40 27 88 93
88 122 0 23 12 23 27 -1 23 -36 111 -71 180 -71 73 0 115 15 165 59 20 17 38
31 41 31 2 0 7 -15 11 -32 9 -48 70 -133 118 -168 78 -57 188 -74 284 -45 27
8 50 15 52 15 2 0 0 -20 -4 -45 -3 -26 -2 -45 3 -45 5 0 29 -17 53 -37 86 -74
124 -214 85 -322 l-14 -41 32 17 c34 17 109 23 142 10 18 -6 25 1 49 50 38 79
124 206 187 276 49 55 51 60 45 100 -31 191 -207 293 -405 231 -21 -6 -22 -4
-16 15 3 11 6 53 6 92 0 80 -27 151 -79 210 -125 143 -397 127 -493 -28 l-22
-36 -23 46 c-102 200 -390 174 -454 -41 -13 -42 -13 -42 -34 -23 -38 34 -84
51 -141 51 -66 0 -121 -25 -159 -72 -14 -18 -31 -39 -37 -45 -15 -19 -78 -15
-127 7 -33 15 -47 29 -62 62 -11 24 -20 51 -20 61 0 35 -31 77 -70 97 -35 18
-59 20 -224 20 -106 0 -197 -5 -213 -11 -47 -18 -82 -58 -89 -104 -12 -86 -58
-132 -142 -142 -49 -5 -50 -5 -76 33 -42 63 -88 88 -170 92 -67 4 -74 2 -122
-30 l-51 -34 -11 43 c-14 50 -70 117 -122 143 -43 22 -122 32 -165 21z m87
-111 c20 -6 50 -26 67 -46 26 -29 31 -43 31 -86 0 -45 -4 -54 -39 -89 -35 -35
-44 -39 -89 -39 -43 0 -57 5 -86 31 -79 69 -60 182 38 225 38 16 33 16 78 4z
m2219 0 c19 -5 48 -24 65 -41 25 -27 29 -38 29 -90 0 -57 -2 -63 -37 -95 -32
-29 -45 -34 -88 -34 -41 0 -55 5 -85 31 -19 17 -40 48 -46 68 -10 33 -8 45 9
85 17 37 30 51 64 66 51 23 44 22 89 10z m-973 -12 c5 -7 17 -39 26 -71 22
-76 81 -137 150 -157 44 -12 47 -15 43 -39 -3 -14 -65 -347 -139 -738 l-133
-713 -121 0 -122 0 -12 68 c-19 110 -250 1365 -255 1389 -4 17 1 23 24 28 57
12 117 60 145 116 14 29 26 61 26 72 0 10 5 27 10 38 10 18 23 19 179 19 123
0 171 -3 179 -12z m-1700 -28 c78 -45 124 -147 103 -226 -25 -91 -90 -150
-178 -161 -199 -23 -312 223 -165 360 63 59 163 70 240 27z m3261 1 c117 -60
146 -218 58 -318 -85 -97 -234 -95 -316 3 -55 67 -64 141 -27 220 52 111 173
152 285 95z m-2359 -136 c38 -38 35 -98 -8 -136 -63 -56 -148 -26 -159 56 -12
94 99 148 167 80z m1397 3 c48 -45 35 -130 -24 -157 -93 -43 -184 64 -122 143
40 51 101 56 146 14z m-1971 -184 c54 -23 142 -18 201 11 28 14 59 35 69 46
18 20 18 19 44 -33 73 -148 293 -157 367 -15 11 23 17 27 23 16 10 -19 83
-419 77 -425 -2 -2 -33 13 -68 34 -161 98 -345 155 -553 172 -203 17 -327 -19
-435 -127 -84 -85 -105 -143 -106 -298 0 -128 7 -159 56 -257 54 -109 235
-336 396 -496 152 -152 153 -153 125 -163 -15 -6 -74 -29 -131 -51 l-104 -41
-18 24 c-12 15 -19 41 -19 72 0 57 -21 112 -58 150 -40 42 -78 59 -138 60 -44
2 -53 5 -48 17 13 33 16 139 5 173 -31 92 -125 167 -211 167 -22 0 -40 4 -40
9 0 5 9 28 20 52 11 24 20 61 20 81 0 29 -4 38 -22 43 -13 4 -39 19 -58 34
l-35 28 0 -72 c0 -63 -3 -76 -29 -109 -119 -157 -365 -44 -324 149 19 90 117
155 208 140 21 -4 46 -13 57 -20 29 -23 31 -18 12 38 -23 65 -23 99 -3 167 20
68 62 129 109 161 33 22 36 27 33 67 -2 23 -2 42 -1 42 1 0 30 -7 64 -16 170
-44 340 50 390 214 l12 42 40 -36 c21 -20 54 -42 73 -50z m-2919 7 c29 -14 49
-33 70 -68 56 -95 33 -277 -66 -533 l-29 -75 -53 4 c-30 1 -55 4 -56 5 -1 1
13 38 32 82 63 146 113 354 99 411 -13 55 -33 83 -60 83 -66 0 -154 -63 -241
-173 -31 -40 -78 -95 -105 -122 l-48 -51 45 -134 c25 -74 45 -139 45 -145 0
-15 -172 15 -176 30 -2 6 -17 55 -34 111 l-31 101 -67 6 c-37 3 -98 18 -137
33 -63 26 -82 28 -197 29 -114 0 -129 -2 -155 -21 -23 -18 -28 -29 -27 -61 1
-83 74 -164 269 -302 l80 -56 -65 -6 c-65 -5 -65 -5 -130 40 -36 25 -97 77
-136 116 -64 62 -74 78 -93 140 -27 86 -22 123 25 175 30 34 46 41 111 56 105
23 211 15 331 -25 90 -30 152 -39 152 -23 0 5 -11 42 -25 82 -14 40 -25 77
-25 81 0 10 122 50 129 43 3 -3 18 -40 32 -82 14 -41 30 -77 37 -80 6 -2 33
27 59 64 97 137 182 212 298 262 62 26 88 27 142 3z m6292 -94 c47 -31 81 -97
81 -156 0 -123 -128 -211 -245 -167 -139 53 -162 229 -43 319 41 31 61 36 120
33 31 -2 61 -12 87 -29z m-6379 -111 c0 -32 -32 -164 -60 -247 -35 -105 -80
-197 -109 -223 -20 -18 -21 -18 -30 7 -34 89 -63 201 -55 212 5 6 25 34 44 61
41 58 184 204 199 204 6 0 11 -6 11 -14z m3220 -101 c191 -29 368 -95 523
-197 45 -30 79 -59 82 -72 13 -54 145 -778 145 -795 0 -16 -11 -19 -82 -25
-108 -10 -287 -40 -416 -71 -57 -14 -109 -22 -115 -18 -81 47 -316 280 -411
408 -33 44 -79 106 -103 137 -156 204 -147 475 18 585 94 62 186 75 359 48z
m2230 -1 c95 -28 174 -95 208 -173 24 -57 28 -206 7 -276 -25 -87 -42 -117
-162 -276 -110 -147 -290 -337 -396 -418 l-58 -44 -109 27 c-135 33 -308 62
-417 72 -46 3 -83 9 -83 12 0 15 152 816 156 824 11 17 125 89 211 132 106 53
251 100 353 115 41 6 86 13 100 15 62 9 141 5 190 -10z m3414 -225 c9 -37 16
-77 16 -88 0 -42 51 -180 88 -237 22 -32 87 -108 146 -167 111 -113 147 -168
200 -309 76 -203 157 -312 313 -417 96 -65 167 -91 251 -91 l66 0 -96 -92
c-60 -58 -100 -104 -104 -121 -12 -50 1 -133 30 -190 34 -66 30 -83 -31 -151
-86 -96 -98 -148 -62 -269 13 -47 13 -49 -11 -68 -14 -10 -56 -28 -95 -40 -93
-28 -130 -52 -160 -103 -23 -39 -25 -54 -25 -154 l0 -110 -52 -12 c-110 -23
-169 -71 -197 -160 -5 -19 -15 -109 -20 -200 -5 -91 -15 -180 -22 -198 -21
-61 -93 -63 -175 -4 -36 26 -43 39 -84 162 -25 74 -50 135 -55 137 -6 2 -50
-76 -98 -173 -93 -186 -154 -268 -232 -309 -33 -19 -35 -19 -54 -1 -26 23 -36
59 -61 211 -24 143 -25 215 -5 281 17 56 19 84 6 84 -5 0 -64 -41 -132 -91
-138 -101 -153 -110 -363 -203 -153 -68 -200 -82 -235 -71 -26 8 -26 30 -1 97
11 28 18 54 15 56 -2 2 -48 -1 -102 -7 -341 -37 -411 -21 -421 103 -7 84 27
181 84 245 58 65 111 96 194 115 73 17 384 55 690 86 371 37 403 41 485 67
147 47 272 121 379 227 117 114 147 176 194 396 52 241 51 570 -3 688 -13 28
-29 52 -36 52 -8 0 -9 -14 -4 -52 34 -240 18 -459 -51 -688 -53 -174 -109
-262 -228 -358 -152 -124 -286 -175 -519 -198 -336 -33 -719 -76 -842 -94
-214 -33 -315 -97 -410 -261 -56 -97 -170 -220 -231 -250 -115 -55 -244 21
-304 180 -15 39 -20 76 -20 155 0 226 79 336 272 381 87 19 226 32 542 50 148
8 297 22 331 30 271 62 490 234 612 480 59 118 68 158 68 305 -1 74 -4 143 -7
152 -7 17 -10 17 -50 -1 -69 -29 -216 -69 -339 -91 -63 -11 -149 -27 -192 -35
-87 -15 -201 -64 -265 -113 -52 -39 -49 -41 -132 68 -32 41 -65 81 -74 89 -45
38 10 78 144 107 105 22 138 35 172 69 56 55 59 183 6 233 -66 61 -220 100
-346 86 -42 -5 -83 -9 -91 -9 -16 0 -39 56 -40 98 -1 16 11 44 27 64 38 50 38
124 -1 209 -43 96 -44 119 -11 140 24 16 56 20 233 24 l206 5 80 41 c133 68
133 68 425 69 236 1 273 3 335 22 145 42 296 115 395 190 40 31 46 33 57 17 6
-9 19 -47 27 -85z m-9617 -10 c53 -16 106 -29 119 -29 26 0 41 -25 51 -87 5
-30 4 -33 -21 -33 -33 0 -66 -16 -87 -42 -15 -19 -18 -17 -117 56 -107 80
-182 148 -182 167 0 19 131 1 237 -32z m422 -303 c79 -26 146 -45 149 -42 3 4
-5 17 -18 31 -26 27 -29 24 59 49 71 21 132 20 261 -1 58 -9 106 -18 108 -19
1 -1 -2 -13 -9 -27 -25 -55 6 -91 475 -548 242 -236 446 -442 453 -457 22 -50
16 -100 -16 -133 -35 -34 -54 -36 -116 -9 -129 55 -199 -18 -150 -155 30 -82
12 -104 -75 -92 -41 5 -75 29 -229 159 -111 94 -233 156 -376 192 -55 13 -117
32 -137 40 -74 31 -146 126 -171 224 -7 29 -17 54 -23 55 -14 3 -17 -128 -4
-189 15 -71 68 -175 127 -252 175 -224 219 -276 297 -349 123 -116 243 -192
548 -346 295 -148 423 -229 542 -339 250 -230 373 -554 337 -887 -14 -130 -25
-177 -38 -174 -6 1 -69 42 -139 91 -71 49 -227 153 -346 232 -120 79 -218 147
-218 150 0 4 23 17 51 31 142 66 206 205 151 329 -33 75 -156 253 -203 294
-99 85 -250 155 -425 197 -44 10 -168 32 -275 49 -256 39 -319 53 -469 102
-219 73 -450 205 -566 325 -109 111 -174 276 -194 495 -10 101 -3 254 16 344
3 18 2 34 -4 38 -12 7 -46 -132 -63 -259 -17 -128 -6 -340 21 -435 30 -105 85
-205 150 -270 135 -137 461 -310 710 -378 99 -27 204 -47 380 -73 260 -38 462
-100 575 -175 73 -48 150 -134 210 -234 64 -108 65 -134 5 -196 -40 -39 -151
-104 -181 -104 -19 0 -103 63 -159 119 -61 63 -133 122 -168 140 -23 12 -23
12 -20 -46 l3 -58 -52 -3 c-60 -3 -149 18 -248 59 -62 25 -78 38 -128 99 -31
39 -63 70 -71 70 -9 0 -18 -22 -26 -67 -6 -38 -18 -79 -26 -91 -14 -21 -21
-23 -52 -17 -76 14 -107 39 -157 128 -86 153 -253 353 -276 330 -6 -6 -15 -64
-20 -129 -12 -149 -25 -225 -42 -242 -18 -17 -118 14 -186 57 -105 68 -139
121 -232 358 -24 62 -51 122 -60 134 l-17 22 -27 -44 c-28 -44 -92 -121 -106
-127 -12 -5 -87 100 -129 182 -35 67 -40 86 -40 144 0 68 16 172 45 296 13 56
14 75 4 98 -22 53 -55 59 -169 29 -41 -11 -76 -18 -78 -17 -1 2 2 34 8 72 6
38 12 121 13 184 2 105 0 120 -24 170 -31 64 -82 118 -145 151 -24 13 -44 27
-44 30 0 4 24 13 53 19 248 59 548 232 702 406 57 64 143 128 189 140 47 11
111 -15 183 -76 94 -79 108 -85 139 -65 35 23 31 60 -17 128 -56 79 -84 154
-67 174 20 24 107 11 267 -41z m2852 -251 c63 -33 88 -124 52 -186 -25 -41
-93 -73 -140 -64 -48 9 -98 59 -107 108 -19 104 100 191 195 142z m3506 -5
c64 -38 84 -111 50 -176 -62 -121 -247 -76 -247 59 0 106 109 171 197 117z
m-3232 -372 c35 -42 34 -91 -4 -129 -80 -80 -208 11 -155 110 34 64 114 73
159 19z m2952 20 c29 -14 56 -72 47 -101 -23 -76 -115 -103 -167 -49 -38 39
-38 98 1 134 39 37 66 41 119 16z m-1162 -63 c286 -39 514 -101 783 -210 23
-9 42 -19 42 -20 0 -2 -11 -25 -24 -52 -13 -26 -29 -73 -37 -103 -7 -30 -16
-59 -19 -63 -4 -4 -47 9 -96 29 -360 149 -702 211 -1104 201 -343 -9 -629 -66
-915 -183 -60 -24 -114 -45 -119 -47 -5 -1 -14 26 -21 60 -8 34 -23 83 -34
109 -12 25 -21 50 -21 54 0 11 219 91 350 128 203 58 406 97 585 112 139 12
498 3 630 -15z m-10 -350 c236 -37 486 -109 664 -191 l77 -35 12 -117 c6 -64
14 -128 18 -141 l7 -25 -34 21 c-19 12 -83 46 -144 76 -283 141 -573 214 -896
224 -400 13 -754 -68 -1106 -251 -59 -31 -107 -55 -109 -53 -1 1 4 34 12 72 7
39 13 98 14 132 l0 63 68 31 c225 104 539 184 827 213 94 9 494 -3 590 -19z
m-144 -306 c333 -33 683 -162 976 -358 268 -179 481 -406 711 -759 245 -376
419 -817 497 -1257 l18 -99 -86 -81 c-47 -44 -101 -105 -121 -135 -65 -101
-108 -268 -86 -334 13 -41 80 -102 120 -111 31 -7 40 -27 40 -91 0 -58 33
-103 97 -134 l53 -25 -6 -55 c-3 -30 -17 -116 -31 -190 -116 -643 -400 -1219
-808 -1639 -223 -229 -432 -384 -690 -511 -614 -301 -1281 -290 -1895 31 -277
146 -573 395 -789 663 -281 352 -495 804 -606 1281 -41 177 -42 186 -14 211
37 34 62 95 63 154 0 30 -6 118 -13 195 -25 254 -10 464 55 804 35 180 26 249
-42 322 l-25 26 35 114 c120 395 296 735 571 1103 216 289 464 496 790 662
215 108 485 190 710 213 118 12 358 13 476 0z m-6210 -663 c158 -34 307 -154
486 -394 86 -115 145 -278 157 -432 15 -191 -30 -454 -107 -625 -71 -157 -61
-232 39 -306 77 -56 90 -80 75 -130 -7 -22 -52 -103 -102 -179 -49 -77 -108
-173 -130 -214 -44 -82 -66 -107 -74 -85 -2 8 -16 66 -30 130 -38 180 -54 209
-112 209 -40 0 -51 -12 -112 -115 -25 -44 -94 -145 -152 -225 -126 -174 -158
-225 -198 -310 -47 -100 -64 -181 -59 -277 10 -190 133 -328 330 -369 81 -17
181 -13 250 12 22 8 45 14 50 14 9 0 5 -89 -8 -182 l-6 -38 -52 0 c-28 0 -90
5 -136 11 -445 55 -660 282 -606 639 33 215 132 419 332 683 196 260 230 322
254 458 21 123 -16 197 -127 249 l-67 32 34 29 c19 16 63 43 97 60 57 29 68
31 125 25 159 -18 162 -18 194 3 35 22 74 94 95 181 20 81 18 298 -5 380 -60
217 -197 395 -371 481 -154 75 -282 90 -370 41 -94 -52 -144 -151 -153 -307
-7 -127 24 -225 107 -335 24 -31 36 -57 30 -60 -5 -4 -38 -3 -72 2 -81 12
-175 5 -215 -16 -44 -23 -61 -53 -73 -126 -19 -117 -56 -199 -148 -322 -19
-27 -39 -48 -43 -48 -4 0 -18 33 -30 73 -27 88 -31 254 -8 329 14 46 13 48
-10 73 -33 35 -60 29 -153 -33 -148 -101 -185 -109 -317 -70 -41 12 -77 23
-79 25 -2 1 34 43 81 91 108 112 198 244 198 290 0 43 -79 128 -156 169 -29
15 -54 31 -54 34 0 9 191 66 332 99 169 39 261 76 404 161 166 99 240 135 362
176 162 54 205 59 303 39z m12259 -170 c237 -85 217 -81 345 -80 101 0 136 4
220 28 136 39 182 34 350 -34 115 -46 141 -53 220 -57 50 -3 94 -9 99 -13 5
-5 -9 -43 -30 -87 -34 -68 -39 -89 -43 -161 -3 -78 -1 -88 30 -149 37 -73 35
-87 -22 -115 -54 -28 -113 -23 -233 22 -58 23 -111 38 -116 35 -6 -3 -10 -23
-10 -44 0 -53 -28 -261 -49 -367 -25 -123 -92 -364 -102 -364 -17 0 -289 279
-326 335 -81 121 -163 320 -163 395 0 51 41 142 85 189 71 77 80 111 46 168
-25 40 -159 108 -256 128 -139 29 -335 13 -441 -37 -113 -52 -240 -201 -282
-329 -27 -80 -52 -246 -52 -341 0 -243 97 -467 274 -637 l67 -63 -15 -42 c-8
-22 -25 -77 -36 -121 -12 -44 -28 -104 -37 -133 l-15 -54 -49 77 c-118 184
-285 474 -321 557 -22 50 -51 139 -66 197 -23 93 -26 125 -26 266 1 171 12
242 61 384 36 106 91 187 184 275 92 86 213 153 339 186 109 29 267 23 370
-14z m-4096 -280 c19 -102 111 -217 217 -272 46 -24 66 -29 134 -29 68 0 88 5
132 28 29 15 68 41 88 58 20 18 37 30 39 28 1 -2 8 -23 15 -47 16 -57 78 -119
135 -134 l44 -11 -28 -58 c-15 -32 -33 -86 -40 -119 l-13 -62 -56 5 c-31 4
-150 12 -266 18 -115 7 -219 15 -230 19 -13 5 -32 36 -54 91 -46 114 -139 298
-211 419 l-59 100 73 0 74 0 6 -34z m-6211 -172 c153 -61 305 -80 372 -48 l34
16 67 -57 c111 -95 285 -221 452 -327 391 -250 671 -450 709 -508 30 -44 29
-85 -6 -272 -16 -84 -35 -198 -42 -253 -16 -123 -16 -427 0 -597 11 -104 10
-132 -1 -155 -16 -34 -78 -66 -238 -123 -63 -23 -158 -57 -212 -77 -148 -54
-166 -39 -175 142 -5 101 -4 118 12 135 30 34 78 43 148 30 56 -11 67 -10 119
10 105 39 180 138 198 259 4 31 11 164 14 296 7 273 5 279 -74 331 -61 40
-570 199 -845 263 -49 11 -122 37 -161 56 -83 41 -95 42 -119 15 -15 -16 -17
-26 -9 -48 11 -33 142 -105 231 -126 32 -8 92 -22 133 -31 102 -24 653 -194
664 -206 20 -19 -77 -186 -213 -369 -98 -132 -260 -299 -342 -352 -141 -93
-294 -149 -462 -169 -313 -38 -582 -200 -755 -455 -56 -81 -186 -354 -257
-534 -94 -241 -140 -301 -281 -371 -109 -55 -177 -61 -254 -25 -97 45 -228 33
-297 -27 -35 -30 -40 -32 -107 -29 -91 3 -126 -4 -126 -27 0 -33 74 -56 175
-56 83 0 93 2 133 29 38 26 48 28 99 23 76 -8 83 -17 53 -74 -50 -95 -136
-129 -315 -124 -281 9 -326 2 -380 -52 -27 -27 -35 -48 -53 -137 -32 -154 -37
-232 -18 -318 30 -142 45 -164 233 -325 115 -98 176 -157 189 -183 13 -28 20
-67 22 -136 7 -172 -24 -199 -229 -206 -137 -5 -209 10 -244 48 -16 17 -15 21
5 67 30 67 74 202 68 208 -4 4 -282 23 -360 25 -16 0 -6 88 43 380 33 197 40
305 34 540 -8 285 -13 272 115 283 140 12 225 33 319 78 115 56 240 179 294
290 66 136 105 342 122 649 20 343 139 617 367 842 79 78 90 85 381 259 114
68 221 137 237 154 29 30 64 105 176 380 83 204 113 345 114 530 0 119 -20
259 -53 373 l-24 82 47 -6 c55 -7 112 15 137 52 l15 24 29 -21 c16 -11 57 -32
92 -45z m8041 -136 c32 -218 56 -321 81 -354 83 -108 186 -93 331 51 54 53 77
86 99 138 15 37 31 67 34 67 13 -2 212 -432 255 -551 123 -343 172 -567 216
-982 28 -266 64 -359 196 -507 49 -54 67 -84 92 -152 65 -181 89 -414 58 -568
-10 -46 -21 -91 -25 -99 -6 -10 -22 6 -58 60 -84 124 -199 239 -240 239 -40 0
-1 -82 138 -291 164 -244 362 -476 493 -577 87 -66 153 -129 178 -170 20 -33
21 -47 23 -311 1 -272 1 -278 34 -431 30 -142 32 -165 27 -270 -3 -64 -17
-164 -31 -225 -21 -93 -29 -114 -55 -137 -23 -22 -40 -28 -73 -28 -55 0 -70
12 -104 80 -16 30 -35 55 -43 55 -8 0 -29 -22 -47 -50 -63 -99 -100 -119 -161
-87 -43 22 -74 60 -75 93 0 13 3 50 7 82 10 71 4 72 -100 17 -89 -47 -115 -50
-143 -14 -30 38 -26 71 15 153 44 89 134 187 229 251 135 91 185 175 193 324
8 160 -43 288 -142 353 -48 32 -132 52 -306 73 -268 33 -503 148 -685 334
-159 163 -273 347 -340 548 l-36 108 10 100 c6 55 19 139 30 187 17 79 34 130
103 321 10 30 21 89 25 133 3 43 9 79 12 79 4 0 47 -36 96 -80 199 -177 226
-200 235 -200 19 0 10 18 -61 127 -46 69 -104 140 -163 198 -77 76 -108 99
-201 146 -130 67 -189 88 -361 129 -93 22 -158 45 -232 81 -57 28 -102 55
-100 59 2 4 51 40 111 80 l107 72 39 -35 c22 -19 48 -40 58 -45 62 -32 171
-20 246 28 51 32 85 80 124 173 31 75 82 126 211 211 111 72 102 82 -39 42
-97 -28 -195 -73 -221 -102 -9 -11 -31 -54 -49 -98 -40 -95 -79 -140 -137
-156 -51 -13 -77 -7 -114 28 l-27 25 24 29 c29 35 31 55 8 80 -28 31 -56 21
-145 -51 -165 -132 -417 -283 -563 -337 -27 -10 -66 -35 -87 -56 -38 -38 -49
-67 -67 -176 -14 -90 -53 -170 -85 -178 -54 -13 -120 35 -162 118 -13 27 -29
48 -35 48 -5 0 -27 -16 -47 -36 -32 -31 -41 -35 -72 -29 -19 3 -51 14 -70 23
-39 19 -39 23 -29 182 l4 65 -32 3 c-18 2 -49 -2 -70 -7 -34 -10 -40 -8 -63
14 l-25 25 18 67 c34 130 59 169 185 291 134 128 205 171 369 221 166 51 240
93 442 249 87 68 202 142 291 188 38 19 50 29 37 32 -46 10 -296 -90 -431
-171 -42 -26 -78 -47 -81 -47 -9 0 -44 112 -55 180 -23 135 9 305 80 428 l30
52 70 0 c39 0 73 0 78 1 4 0 8 -8 10 -18 13 -77 70 -113 176 -113 55 0 81 7
178 49 156 68 276 125 323 155 22 14 43 26 47 26 4 0 9 -15 12 -32z m3266
-234 c26 -59 39 -107 50 -186 11 -74 6 -95 -54 -240 -43 -101 -71 -206 -87
-323 -16 -114 -3 -163 63 -227 26 -26 48 -49 48 -53 0 -3 -33 -22 -74 -41 -85
-40 -169 -54 -216 -34 -80 33 -177 234 -200 413 -5 44 -8 83 -5 86 3 2 20 -9
38 -26 99 -94 184 -79 212 37 7 30 29 112 48 182 20 69 45 184 57 255 11 70
25 149 31 175 11 46 11 46 41 36 21 -8 35 -23 48 -54z m-13790 -113 c0 -150
-70 -348 -174 -495 -64 -89 -136 -216 -242 -428 -84 -167 -119 -219 -137 -202
-3 3 1 29 9 57 8 29 14 76 14 104 0 85 -73 251 -180 408 -89 133 -105 187 -94
338 l7 97 58 0 c63 0 138 21 181 51 l27 20 5 -33 c3 -18 8 -58 11 -88 7 -69
41 -193 66 -242 38 -74 108 -91 178 -45 39 26 139 164 186 257 30 59 55 150
55 200 0 20 3 40 7 43 16 17 23 4 23 -42z m9180 -56 c123 -9 225 -17 226 -18
1 -1 7 -47 14 -102 7 -55 22 -140 34 -189 l23 -89 -61 -27 c-34 -15 -101 -40
-151 -55 -49 -15 -119 -40 -154 -56 -35 -16 -65 -28 -66 -27 -2 2 -12 50 -24
108 -24 116 -80 324 -110 413 l-20 57 32 0 c18 0 133 -7 257 -15z m3505 -633
c28 -86 60 -178 72 -204 19 -42 26 -48 53 -48 17 0 63 14 102 30 40 17 78 28
85 26 7 -3 13 -18 13 -34 0 -16 22 -119 49 -228 27 -109 55 -227 61 -262 7
-34 16 -65 21 -68 4 -2 52 14 106 37 75 33 115 43 170 47 70 4 72 4 78 -20 9
-35 -33 -151 -92 -254 -49 -86 -129 -196 -229 -314 -39 -46 -81 -118 -146
-250 -133 -271 -205 -366 -347 -458 -126 -81 -316 -123 -456 -102 -132 20
-281 81 -269 109 16 38 44 157 44 186 0 17 3 34 6 37 3 3 27 -9 54 -27 76 -51
154 -77 250 -82 160 -10 299 45 420 167 260 259 216 659 -86 802 -106 50 -287
56 -391 13 -19 -8 -40 -15 -46 -15 -6 0 -8 32 -5 89 4 65 12 103 30 143 29 63
61 89 138 113 106 32 140 47 140 60 0 7 -25 31 -55 54 -39 30 -55 48 -55 65 0
53 73 305 110 381 35 73 102 165 118 165 4 0 30 -71 57 -158z m-8866 -565 c-9
-98 -13 -114 -43 -161 -21 -33 -47 -59 -70 -70 -40 -19 -40 -19 -139 -10 -60
6 -73 3 -122 -20 -103 -51 -121 -99 -107 -287 8 -110 13 -134 36 -173 61 -105
126 -105 406 -3 136 49 207 70 211 63 4 -6 10 -29 13 -51 37 -213 172 -620
270 -814 l25 -49 -123 -124 c-180 -181 -306 -381 -382 -605 -15 -46 -32 -83
-38 -83 -10 1 -23 10 -127 88 -80 61 -177 103 -333 142 -239 61 -450 146 -482
195 -34 53 22 114 181 197 131 67 194 115 315 237 125 125 184 218 196 303 8
57 -29 148 -127 313 -80 135 -97 157 -154 191 -77 45 -125 48 -286 20 -199
-35 -324 -46 -513 -46 l-161 1 35 30 c100 87 265 151 460 180 287 43 480 139
676 335 110 110 250 292 329 425 l50 85 7 -100 c4 -56 2 -150 -3 -209z m6079
4 c102 -70 218 -119 382 -160 154 -38 300 -92 321 -117 6 -7 13 -40 16 -73 l6
-59 -54 -16 c-244 -70 -661 -69 -820 3 -30 14 -65 21 -109 21 -58 0 -70 -4
-112 -35 -59 -43 -88 -87 -134 -198 -63 -157 -80 -304 -50 -459 31 -160 81
-247 247 -424 105 -113 156 -195 146 -236 -5 -19 -22 -32 -69 -53 l-61 -28
-251 1 c-138 1 -278 -2 -311 -6 l-59 -7 -126 128 c-69 71 -126 132 -128 137
-2 4 20 59 48 121 132 293 228 628 275 963 8 60 15 110 15 112 0 1 12 4 27 7
20 4 32 -2 51 -25 29 -34 101 -72 155 -82 113 -21 207 93 242 293 15 86 30
103 125 146 36 16 85 42 110 57 25 15 48 28 53 28 4 0 33 -18 65 -39z m-196
-525 c121 -45 244 -61 463 -60 173 1 216 5 315 26 63 14 116 24 118 23 2 -1
-13 -40 -32 -87 -71 -171 -110 -380 -104 -559 l3 -96 -35 -29 c-64 -55 -154
-32 -315 78 -190 131 -254 132 -134 3 71 -75 171 -145 267 -186 73 -31 71 -25
54 -121 -22 -117 23 -256 115 -358 53 -59 63 -84 50 -128 -22 -68 -101 -96
-308 -107 -74 -4 -179 -16 -234 -26 -120 -24 -294 -81 -353 -115 -76 -45 -178
-151 -257 -267 -117 -174 -138 -192 -178 -154 -23 21 -48 91 -62 170 -8 51
-28 56 -86 23 -46 -26 -50 -26 -79 -11 -55 28 -58 55 -20 136 46 94 39 105
-62 101 -75 -3 -75 -3 -106 32 -82 93 -32 183 135 246 106 39 210 50 492 50
294 0 328 5 414 59 140 90 111 232 -92 445 -108 115 -147 165 -174 227 -79
178 -75 370 11 559 39 88 81 136 129 149 2 1 31 -10 65 -23z m-6559 -290 c60
-26 133 -130 223 -319 l36 -77 -26 -54 c-34 -69 -136 -188 -228 -266 -40 -34
-125 -92 -188 -130 -224 -133 -255 -164 -267 -260 -5 -41 -1 -56 22 -95 15
-27 45 -58 72 -75 79 -50 292 -131 450 -170 180 -45 250 -76 353 -154 87 -67
130 -91 192 -106 38 -10 49 -19 76 -63 71 -118 118 -288 94 -341 -16 -37 -39
-35 -341 25 -62 13 -111 53 -111 91 0 33 -36 168 -48 180 -7 7 -25 1 -54 -16
-66 -38 -115 -35 -217 14 -97 47 -148 81 -233 155 -81 70 -137 100 -338 175
-335 126 -455 212 -436 314 10 53 96 165 201 262 53 49 98 99 101 111 10 38
-5 72 -39 94 -30 19 -43 20 -182 14 -131 -5 -160 -4 -227 14 -96 25 -178 60
-178 76 0 37 147 348 209 440 21 33 54 77 73 98 l33 38 95 -10 c200 -22 541
-5 701 34 73 17 143 18 182 1z m7478 -799 c228 -390 580 -624 1009 -672 30 -3
93 -13 139 -22 75 -15 89 -21 122 -55 47 -49 73 -122 73 -208 0 -112 -51 -195
-163 -268 -115 -74 -199 -171 -256 -296 -18 -39 -36 -88 -40 -108 l-7 -38
-538 0 -537 0 -158 -126 c-109 -87 -162 -123 -174 -119 -75 30 -602 167 -846
220 -66 14 -126 28 -133 31 -9 2 -2 15 22 37 41 39 118 193 141 282 9 33 18
92 21 130 6 67 9 75 89 195 98 147 198 249 278 284 149 66 327 106 527 116 87
5 177 15 205 24 126 39 190 116 189 226 -1 64 -12 90 -63 145 -57 61 -100 137
-113 197 -15 73 9 152 64 209 l40 41 33 -77 c18 -42 52 -109 76 -148z m-8747
53 c101 -46 200 -63 333 -58 l113 4 -68 -70 c-131 -137 -192 -242 -192 -334 0
-143 149 -254 532 -398 173 -65 210 -86 313 -174 73 -63 169 -121 267 -162 60
-25 86 -31 146 -30 72 1 72 0 72 -26 0 -125 92 -196 280 -217 96 -11 104 -16
139 -92 20 -42 50 -84 78 -110 31 -29 41 -44 32 -48 -8 -2 -77 -18 -154 -35
-167 -37 -478 -116 -667 -171 -75 -21 -145 -39 -155 -39 -10 0 -89 54 -176
120 l-159 120 -849 0 -849 0 0 64 c0 70 -18 132 -55 188 -14 20 -100 102 -193
182 -168 144 -169 145 -188 208 -24 79 -23 210 3 323 17 73 22 81 53 98 31 16
48 17 145 10 327 -23 474 30 553 199 23 49 31 58 53 58 14 0 61 9 103 20 173
44 300 147 377 308 24 50 44 92 45 92 1 0 31 -14 68 -30z m2561 -261 c44 -72
86 -141 94 -153 13 -20 10 -26 -43 -81 -114 -119 -201 -272 -252 -442 -32
-106 -46 -331 -24 -383 17 -41 71 -87 117 -99 60 -17 203 -13 346 10 145 23
195 21 278 -10 60 -23 149 -76 149 -89 0 -5 -123 -26 -272 -47 -150 -21 -378
-57 -508 -81 l-235 -43 -53 36 c-65 45 -129 123 -110 135 7 4 23 8 35 8 32 0
90 55 104 97 7 23 9 62 5 107 -13 145 -55 250 -144 368 l-48 64 28 83 c67 200
178 379 336 543 58 59 107 108 111 108 3 -1 42 -59 86 -131z m4330 41 c49 -49
87 -91 84 -93 -2 -2 -34 -16 -72 -31 -95 -40 -138 -74 -173 -139 l-30 -57 -47
54 -47 55 68 105 c38 57 79 125 93 150 13 25 26 46 29 46 3 0 46 -40 95 -90z
m-4023 -466 c217 -252 509 -475 813 -620 124 -59 317 -134 345 -134 7 0 11 -2
9 -4 -2 -3 -69 -9 -149 -15 -80 -7 -221 -18 -313 -27 l-168 -15 -62 56 c-160
146 -305 184 -542 146 -163 -26 -279 -31 -322 -13 -48 21 -56 52 -44 168 23
221 101 398 243 550 l62 66 20 -29 c12 -15 60 -73 108 -129z m3729 99 c157
-172 255 -417 247 -620 -3 -70 -5 -78 -31 -97 -24 -18 -41 -21 -119 -19 -50 1
-147 12 -217 24 -149 25 -226 22 -332 -15 -81 -28 -140 -66 -214 -137 l-50
-48 -150 14 c-82 8 -224 19 -314 25 -91 6 -166 12 -168 13 -1 2 46 20 105 41
226 80 463 208 672 364 126 94 386 348 460 449 25 34 48 62 51 63 4 0 31 -26
60 -57z m465 -473 l52 0 12 -47 c13 -53 48 -106 83 -125 12 -6 40 -14 62 -17
37 -6 40 -8 37 -36 -11 -99 -72 -252 -121 -302 -14 -14 -47 -40 -73 -58 l-48
-32 -177 33 c-194 36 -581 96 -735 115 -54 6 -98 15 -98 19 0 13 90 68 144 89
86 32 131 34 273 12 160 -25 301 -27 366 -5 55 19 103 69 113 119 3 19 5 88 3
153 l-4 119 30 -19 c19 -11 49 -18 81 -18z m-1826 -501 c792 -42 1542 -153
2306 -339 533 -130 1214 -340 1214 -374 0 -17 -447 -1526 -454 -1534 -4 -3
-99 24 -214 61 -667 212 -1236 344 -1892 436 -977 137 -1800 151 -2750 45
-766 -85 -1449 -231 -2247 -481 -117 -37 -214 -65 -216 -62 -14 15 -448 1542
-441 1549 16 14 493 168 731 235 1331 376 2676 533 3963 464z m-6907 -310 c6
-48 45 -94 97 -117 48 -20 294 -29 385 -13 37 7 85 21 105 31 43 22 88 72 102
112 l10 28 834 0 834 0 103 -76 c56 -43 108 -83 115 -89 11 -10 -16 -23 -145
-65 -153 -51 -363 -127 -370 -133 -2 -2 58 -212 132 -467 74 -255 135 -467
135 -471 0 -5 -778 -9 -1730 -9 -952 0 -1730 2 -1730 4 0 3 60 121 134 263 74
142 151 292 171 333 l37 75 -167 290 c-92 160 -173 302 -181 318 l-15 27 569
0 569 0 6 -41z m11365 9 c32 -32 37 -33 112 -33 78 0 79 0 93 -30 43 -90 119
-139 214 -139 51 0 71 6 110 30 l48 29 45 -22 c56 -29 147 -31 205 -4 55 25
100 79 121 146 l18 55 693 0 c381 0 693 -3 693 -6 0 -6 -167 -297 -298 -519
l-65 -110 172 -337 172 -338 -1700 0 c-1452 0 -1701 2 -1701 14 0 10 215 752
266 917 5 18 -95 58 -384 154 -79 26 -142 48 -140 50 2 2 52 42 111 89 l108
86 537 0 536 0 34 -32z"/>
<path d="M7595 10701 c-74 -19 -112 -51 -144 -121 -28 -62 -26 -115 5 -179 37
-73 86 -104 173 -109 55 -3 74 1 111 20 147 79 146 293 0 368 -46 23 -104 32
-145 21z m79 -115 c70 -29 88 -105 37 -157 -49 -49 -125 -38 -157 23 -32 62 6
130 84 147 1 1 18 -5 36 -13z"/>
<path d="M11320 9873 c-24 -9 -50 -35 -50 -50 0 -22 73 -95 115 -114 22 -10
51 -19 65 -19 37 0 203 55 208 68 5 16 -112 89 -172 107 -49 15 -136 19 -166
8z"/>
<path d="M3560 9510 c-163 -14 -162 -36 3 -124 87 -46 121 -47 147 -4 10 17
22 49 26 71 5 33 3 43 -12 54 -19 14 -32 14 -164 3z"/>
<path d="M7438 7965 c-632 -86 -1186 -513 -1514 -1167 -283 -563 -361 -1242
-218 -1888 152 -685 566 -1271 1109 -1573 177 -98 396 -173 589 -202 133 -19
369 -19 504 1 282 41 570 164 809 343 110 82 295 260 380 366 648 802 765
2004 289 2955 -407 812 -1174 1270 -1948 1165z m270 -102 c-26 -2 -71 -2 -100
0 -29 2 -8 3 47 3 55 0 79 -1 53 -3z m-215 -10 c-7 -2 -19 -2 -25 0 -7 3 -2 5
12 5 14 0 19 -2 13 -5z m350 0 c-7 -2 -21 -2 -30 0 -10 3 -4 5 12 5 17 0 24
-2 18 -5z m64 -9 c-3 -3 -12 -4 -19 -1 -8 3 -5 6 6 6 11 1 17 -2 13 -5z m66
-11 c-7 -2 -19 -2 -25 0 -7 3 -2 5 12 5 14 0 19 -2 13 -5z m44 -9 c-3 -3 -12
-4 -19 -1 -8 3 -5 6 6 6 11 1 17 -2 13 -5z m80 -20 c-3 -3 -12 -4 -19 -1 -8 3
-5 6 6 6 11 1 17 -2 13 -5z m133 -44 c8 -5 11 -10 5 -10 -5 0 -17 5 -25 10 -8
5 -10 10 -5 10 6 0 17 -5 25 -10z m50 -20 c8 -5 11 -10 5 -10 -5 0 -17 5 -25
10 -8 5 -10 10 -5 10 6 0 17 -5 25 -10z m90 -40 c33 -17 60 -33 60 -35 0 -5
-119 52 -129 61 -13 12 16 1 69 -26z m130 -76 c0 -2 -9 0 -20 6 -11 6 -20 13
-20 16 0 2 9 0 20 -6 11 -6 20 -13 20 -16z m50 -30 c0 -2 -9 0 -20 6 -11 6
-20 13 -20 16 0 2 9 0 20 -6 11 -6 20 -13 20 -16z m163 -116 c80 -65 184 -167
250 -243 29 -32 -9 2 -83 76 -74 74 -177 166 -227 204 -51 37 -93 70 -93 72 0
7 88 -56 153 -109z m-1690 -292 c196 -88 339 -299 392 -578 26 -139 39 -406
25 -511 -28 -206 -108 -373 -249 -520 -91 -95 -186 -163 -289 -207 -59 -25
-91 -45 -99 -61 -6 -13 -19 -78 -28 -144 -39 -292 -130 -562 -247 -733 -46
-68 -147 -171 -189 -192 -61 -32 -64 -21 -35 146 58 335 99 734 116 1129 11
261 5 842 -11 1133 -9 169 -9 186 8 220 15 32 27 40 82 59 71 24 113 59 143
118 24 49 82 111 123 133 89 47 166 49 258 8z m2069 -113 c67 -94 92 -133 86
-133 -3 0 -22 26 -43 58 -21 31 -59 84 -84 117 -25 33 -38 54 -30 48 8 -7 40
-47 71 -90z m-375 -69 c-41 -482 -30 -1082 29 -1579 38 -321 105 -683 189
-1017 25 -98 45 -182 45 -188 0 -21 -23 -9 -90 47 -150 123 -279 324 -393 614
-52 131 -109 314 -130 415 l-14 69 -12 -40 c-6 -22 -59 -254 -117 -515 -58
-261 -110 -479 -115 -484 -15 -16 -34 47 -154 510 -64 247 -118 451 -121 453
-2 2 -6 -2 -8 -10 -28 -89 -40 -130 -56 -198 -57 -236 -174 -460 -343 -653
-92 -105 -207 -188 -207 -149 0 6 9 25 19 43 25 43 139 333 186 473 195 583
287 1197 271 1815 -3 140 -9 295 -12 344 -9 114 4 112 68 -9 113 -215 283
-647 378 -960 27 -88 51 -153 53 -145 143 452 265 766 423 1082 88 178 121
202 111 82z m483 -94 c6 -11 8 -20 6 -20 -3 0 -10 9 -16 20 -6 11 -8 20 -6 20
3 0 10 -9 16 -20z m35 -60 c9 -16 13 -30 11 -30 -3 0 -12 14 -21 30 -9 17 -13
30 -11 30 3 0 12 -13 21 -30z m65 -124 c0 -12 -5 -7 -19 24 -11 24 -11 24 3 6
9 -11 16 -24 16 -30z m49 -111 c0 -5 -11 10 -24 35 -13 25 -24 50 -24 55 0 6
11 -10 24 -35 13 -25 24 -49 24 -55z m35 -85 c3 -14 -3 -7 -13 15 -11 22 -20
45 -20 50 0 15 26 -37 33 -65z m41 -110 c14 -40 25 -78 24 -84 0 -10 -35 82
-54 146 -17 55 7 5 30 -62z m44 -150 c0 -9 -4 -8 -9 5 -5 11 -9 27 -9 35 0 9
4 8 9 -5 5 -11 9 -27 9 -35z m8 -42 c-3 -8 -6 -5 -6 6 -1 11 2 17 5 13 3 -3 4
-12 1 -19z m10 -40 c-3 -8 -6 -5 -6 6 -1 11 2 17 5 13 3 -3 4 -12 1 -19z m31
-138 c0 -14 -6 2 -14 35 -7 33 -13 67 -12 75 1 23 26 -82 26 -110z m9 -67 c-3
-10 -5 -4 -5 12 0 17 2 24 5 18 2 -7 2 -21 0 -30z m10 -70 c-3 -10 -5 -2 -5
17 0 19 2 27 5 18 2 -10 2 -26 0 -35z m10 -90 c-2 -16 -4 -5 -4 22 0 28 2 40
4 28 2 -13 2 -35 0 -50z m10 -145 c-2 -24 -4 -7 -4 37 0 44 2 63 4 43 2 -21 2
-57 0 -80z m10 -145 c-3 -10 -5 -4 -5 12 0 17 2 24 5 18 2 -7 2 -21 0 -30z
m-10 -195 c-2 -24 -4 -7 -4 37 0 44 2 63 4 43 2 -21 2 -57 0 -80z m-10 -110
c-2 -13 -4 -3 -4 22 0 25 2 35 4 23 2 -13 2 -33 0 -45z m-10 -75 c-3 -10 -5
-4 -5 12 0 17 2 24 5 18 2 -7 2 -21 0 -30z m-10 -70 c-3 -10 -5 -4 -5 12 0 17
2 24 5 18 2 -7 2 -21 0 -30z m-10 -55 c-3 -7 -5 -2 -5 12 0 14 2 19 5 13 2 -7
2 -19 0 -25z m-10 -50 c-3 -7 -5 -2 -5 12 0 14 2 19 5 13 2 -7 2 -19 0 -25z
m-10 -40 c-3 -8 -6 -5 -6 6 -1 11 2 17 5 13 3 -3 4 -12 1 -19z m-10 -50 c-3
-7 -5 -2 -5 12 0 14 2 19 5 13 2 -7 2 -19 0 -25z m-13 -52 c-3 -15 -8 -25 -11
-23 -2 3 -1 17 3 31 3 15 8 25 11 23 2 -3 1 -17 -3 -31z m-17 -58 c-3 -8 -6
-5 -6 6 -1 11 2 17 5 13 3 -3 4 -12 1 -19z m-37 -123 c-16 -47 -23 -40 -8 8 6
20 13 35 16 33 2 -3 -1 -21 -8 -41z m-39 -102 c-12 -20 -14 -14 -5 12 4 9 9
14 11 11 3 -2 0 -13 -6 -23z m-25 -60 c-8 -15 -15 -25 -16 -21 0 12 23 58 27
54 3 -2 -2 -17 -11 -33z m-40 -90 c-14 -26 -25 -45 -26 -41 0 12 43 98 48 94
2 -2 -8 -26 -22 -53z m-56 -113 c-11 -22 -23 -40 -25 -40 -3 0 4 18 15 40 11
22 23 40 25 40 3 0 -4 -18 -15 -40z m-50 -90 c-6 -11 -13 -20 -16 -20 -2 0 0
9 6 20 6 11 13 20 16 20 2 0 0 -9 -6 -20z m-50 -80 c-6 -11 -13 -20 -16 -20
-2 0 0 9 6 20 6 11 13 20 16 20 2 0 0 -9 -6 -20z m-40 -64 c0 -2 -8 -10 -17
-17 -16 -13 -17 -12 -4 4 13 16 21 21 21 13z m-50 -70 c0 -2 -8 -10 -17 -17
-16 -13 -17 -12 -4 4 13 16 21 21 21 13z m-40 -50 c0 -2 -8 -10 -17 -17 -16
-13 -17 -12 -4 4 13 16 21 21 21 13z m-50 -59 c0 -2 -10 -12 -22 -23 l-23 -19
19 23 c18 21 26 27 26 19z m-90 -100 c0 -2 -12 -14 -27 -28 l-28 -24 24 28
c23 25 31 32 31 24z m-120 -110 c0 -2 -10 -12 -22 -23 l-23 -19 19 23 c18 21
26 27 26 19z"/>
<path d="M6830 7097 c-52 -26 -54 -42 -61 -467 -4 -217 -9 -558 -11 -756 -3
-344 -2 -363 16 -383 25 -27 59 -26 121 3 136 63 162 149 201 666 32 435 -1
700 -106 858 -25 36 -52 64 -75 75 -42 20 -52 21 -85 4z"/>
<path d="M7786 2108 c-3 -40 -7 -150 -10 -245 l-5 -171 40 -7 c22 -4 43 -4 47
-1 3 4 8 97 10 207 3 110 8 197 12 192 4 -4 19 -75 35 -158 15 -82 32 -171 37
-197 l10 -48 48 0 c57 0 43 -28 104 216 55 217 57 216 50 -18 l-6 -208 44 0
45 0 6 143 c4 78 7 190 7 250 l0 107 -69 0 -69 0 -11 -32 c-6 -18 -26 -98 -46
-178 -20 -79 -40 -151 -45 -159 -8 -16 -8 -18 -58 234 l-28 140 -71 3 -71 3
-6 -73z"/>
<path d="M6803 2153 l-52 -4 5 -47 c5 -52 24 -390 24 -425 0 -20 4 -22 51 -18
l51 3 -7 88 -7 87 82 7 c136 11 172 41 178 145 5 80 -12 122 -61 151 -32 20
-108 24 -264 13z m205 -89 c17 -12 22 -25 22 -59 0 -57 -23 -73 -105 -77 l-60
-3 -3 78 -3 77 63 0 c41 0 71 -5 86 -16z"/>
<path d="M8705 2141 c-115 -29 -176 -121 -178 -266 -1 -71 3 -87 29 -135 21
-39 42 -63 78 -85 44 -27 58 -30 125 -30 97 1 149 26 192 93 38 60 49 101 49
182 -1 102 -44 181 -120 220 -41 21 -132 32 -175 21z m125 -96 c80 -41 93
-200 24 -292 -66 -88 -194 -51 -223 63 -23 92 22 212 89 237 29 11 81 7 110
-8z"/>
<path d="M6372 2113 c-19 -4 -21 -9 -17 -41 7 -51 45 -419 45 -439 0 -13 9
-15 45 -10 26 2 48 7 50 9 4 4 -27 342 -41 446 -6 45 -14 48 -82 35z"/>
<path d="M9305 2048 c-10 -46 -72 -463 -69 -467 2 -2 23 -6 47 -8 50 -6 49 -8
63 115 3 34 10 64 14 67 4 2 36 0 71 -6 91 -14 102 -30 93 -129 -3 -43 -2 -80
2 -82 5 -3 29 -8 54 -12 l45 -6 0 104 c0 86 -3 108 -17 122 -16 17 -16 19 11
35 30 18 61 74 61 111 0 12 -9 42 -20 66 -24 53 -51 65 -186 86 -54 9 -113 18
-131 21 -28 5 -33 3 -38 -17z m235 -102 c34 -15 46 -55 29 -92 -12 -25 -21
-29 -59 -32 -25 -1 -65 1 -90 6 -43 8 -45 9 -43 41 0 18 4 49 8 68 l6 35 62
-7 c34 -4 73 -12 87 -19z"/>
<path d="M5787 2040 c-20 -4 -39 -9 -41 -11 -1 -2 13 -113 32 -246 34 -232 36
-242 56 -238 12 2 89 14 171 26 83 11 151 22 152 23 1 1 -1 20 -4 42 l-5 41
-120 -19 c-67 -10 -123 -17 -125 -14 -3 2 -15 80 -29 173 -31 217 -34 233 -42
232 -4 -1 -24 -5 -45 -9z"/>
<path d="M5385 1971 c-25 -5 -29 -11 -27 -31 4 -30 70 -405 78 -439 5 -21 9
-23 46 -17 23 4 44 9 48 11 3 2 -13 111 -37 242 -23 131 -43 239 -43 241 0 3
-32 0 -65 -7z"/>
<path d="M10000 1955 c0 -1 -22 -107 -50 -236 -27 -129 -50 -237 -50 -240 0
-10 84 -29 91 -21 3 4 14 47 24 95 l18 89 36 -7 c127 -23 140 -37 122 -137 -6
-36 -11 -70 -11 -75 0 -8 78 -33 103 -33 2 0 3 17 3 38 0 20 4 64 8 97 7 52 6
63 -12 84 l-19 25 31 15 c37 19 66 72 66 122 0 44 -35 99 -75 118 -25 12 -285
72 -285 66z m247 -151 c26 -35 8 -100 -31 -110 -22 -5 -151 18 -163 29 -2 3 0
22 5 43 6 22 13 51 16 65 l6 26 77 -17 c46 -11 82 -26 90 -36z"/>
<path d="M5013 1897 c-50 -11 -50 -12 -24 -119 l18 -78 -41 -11 c-22 -5 -57
-14 -76 -20 -74 -19 -77 -17 -96 70 -9 44 -20 84 -23 90 -4 6 -22 6 -52 -1
l-45 -10 55 -240 56 -240 44 6 c25 3 46 8 48 10 2 2 -5 44 -16 92 -11 49 -22
98 -23 108 -3 17 10 23 90 41 51 12 94 19 96 16 2 -3 14 -51 27 -106 12 -55
24 -101 25 -103 3 -5 94 20 94 27 -1 12 -109 473 -112 475 -2 1 -22 -2 -45 -7z"/>
<path d="M10656 1748 c-27 -95 -106 -407 -106 -417 0 -7 54 -24 85 -25 5 -1
37 105 70 234 l61 235 -31 12 c-55 21 -63 17 -79 -39z"/>
<path d="M4162 1676 c-62 -19 -115 -35 -117 -37 -3 -4 130 -469 137 -473 1 -1
24 4 50 11 l46 14 -24 77 c-13 42 -24 82 -24 87 0 6 34 21 77 34 55 16 85 31
110 56 29 29 33 39 33 87 0 100 -65 179 -145 178 -16 -1 -81 -16 -143 -34z
m167 -82 c27 -34 27 -78 0 -103 -18 -17 -88 -41 -118 -41 -6 0 -18 26 -27 58
-9 31 -19 62 -21 69 -3 7 15 18 44 27 72 22 98 20 122 -10z"/>
<path d="M11087 1666 c-48 -18 -62 -30 -81 -70 -35 -73 -16 -130 58 -179 28
-19 74 -49 103 -67 60 -40 69 -60 41 -95 -45 -57 -188 -7 -188 66 0 24 -5 30
-40 39 -48 13 -60 8 -60 -26 0 -97 110 -184 233 -184 108 0 167 50 167 142 0
61 -27 93 -136 158 -94 57 -108 75 -91 110 33 66 180 23 180 -53 0 -20 7 -27
37 -36 20 -6 42 -11 49 -11 19 0 12 73 -12 115 -42 73 -178 122 -260 91z"/>
<path d="M7236 1503 l-28 -5 6 -171 c5 -117 4 -167 -3 -157 -6 8 -52 83 -104
165 l-93 150 -59 3 -58 3 6 -58 c4 -32 9 -145 13 -251 6 -162 9 -192 21 -188
8 4 28 6 45 6 l31 0 -7 173 c-6 133 -5 169 5 160 6 -6 55 -81 108 -165 l96
-153 54 -3 54 -3 -6 103 c-4 57 -10 169 -13 251 -7 160 -2 149 -68 140z"/>
<path d="M7665 1498 c-2 -7 -41 -113 -85 -236 -44 -123 -80 -227 -80 -232 0
-6 22 -10 49 -10 l49 0 17 50 17 50 94 0 93 0 16 -55 16 -55 55 0 c30 0 54 1
54 3 0 1 -38 112 -85 246 -47 134 -85 245 -85 247 0 2 -27 4 -60 4 -40 0 -62
-4 -65 -12z m95 -193 c16 -52 30 -97 30 -100 0 -3 -30 -5 -66 -5 -49 0 -65 3
-61 13 2 6 17 51 33 100 15 48 29 87 31 87 1 0 16 -43 33 -95z"/>
<path d="M8060 1460 l0 -40 76 0 76 0 -6 -107 c-3 -60 -9 -154 -12 -210 l-6
-103 50 0 50 0 6 148 c4 81 9 173 12 205 l6 59 74 -4 74 -3 0 41 0 41 -152 6
c-83 4 -173 7 -200 7 l-48 0 0 -40z"/>
<path d="M8640 1454 c0 -11 -9 -113 -20 -229 -27 -282 -30 -255 30 -255 45 0
50 2 50 23 0 12 9 121 20 241 11 121 18 221 16 224 -3 2 -25 7 -51 9 -39 5
-45 3 -45 -13z"/>
<path d="M6390 1447 c-58 -5 -107 -11 -109 -13 -2 -2 7 -114 20 -249 l24 -247
45 7 c25 4 46 8 48 10 2 2 -1 43 -7 91 -5 49 -6 92 -3 95 4 4 37 9 74 13 82 8
103 -7 113 -81 14 -108 13 -106 54 -99 20 3 47 6 60 6 20 0 22 2 11 15 -7 9
-19 50 -26 93 -11 61 -19 82 -40 100 l-27 23 21 15 c49 34 48 146 0 191 -48
45 -71 48 -258 30z m183 -99 c23 -27 22 -71 -3 -93 -18 -16 -158 -40 -170 -29
-5 6 -18 127 -14 133 6 7 119 19 144 14 14 -2 33 -13 43 -25z"/>
<path d="M9066 1416 c-93 -35 -149 -132 -150 -261 0 -119 35 -181 129 -225 53
-26 155 -26 211 -1 73 33 121 116 130 224 11 124 -30 208 -123 252 -49 24
-147 29 -197 11z m164 -94 c44 -32 62 -79 57 -154 -5 -77 -27 -122 -77 -155
-41 -28 -85 -29 -127 -3 -53 32 -68 65 -68 145 1 93 28 148 88 176 47 22 88
19 127 -9z"/>
<path d="M5876 1380 c-93 -14 -171 -30 -173 -36 -3 -9 65 -475 70 -480 2 -2
311 43 342 51 17 4 20 11 17 45 -2 22 -5 40 -7 40 -1 0 -62 -9 -135 -20 -73
-12 -134 -19 -136 -17 -2 2 -5 32 -6 68 l-3 64 107 16 c60 8 110 18 113 20 2
3 2 22 -2 42 -4 28 -10 36 -22 33 -34 -10 -211 -29 -217 -24 -3 4 -6 28 -7 54
l-2 48 123 19 c121 19 122 20 121 46 -1 59 2 59 -183 31z"/>
<path d="M9630 1348 c0 -2 -20 -111 -44 -243 -25 -132 -43 -242 -41 -243 2 -2
21 -6 43 -9 28 -4 40 -1 44 8 3 8 18 83 33 167 16 83 31 152 34 152 3 0 33
-80 66 -177 33 -97 65 -182 70 -188 6 -7 29 -15 52 -19 38 -6 43 -4 48 16 5
23 85 458 85 463 0 6 -81 17 -86 12 -3 -2 -18 -75 -34 -162 -16 -87 -31 -159
-33 -162 -5 -4 -66 163 -107 294 -22 68 -25 72 -59 78 -20 3 -44 8 -53 11 -10
3 -18 4 -18 2z"/>
<path d="M5370 1294 c-63 -13 -148 -31 -188 -40 l-74 -16 7 -36 c4 -21 8 -38
9 -40 2 -1 34 4 72 12 38 8 71 11 74 6 3 -5 23 -97 44 -205 33 -165 41 -195
55 -191 9 2 31 7 49 11 24 5 32 11 28 23 -13 44 -77 384 -73 388 2 2 30 9 63
15 32 7 63 15 67 19 9 8 -2 81 -12 79 -3 -1 -58 -12 -121 -25z"/>
<path d="M4853 1183 c-13 -2 -23 -9 -23 -14 0 -8 36 -158 76 -314 3 -11 -58
45 -134 125 l-140 145 -48 -13 c-27 -7 -49 -14 -51 -15 -1 -2 76 -318 108
-440 10 -38 11 -39 47 -32 20 4 40 10 44 13 4 4 -10 77 -32 162 -22 85 -39
159 -37 164 1 4 64 -55 139 -133 l136 -141 49 11 50 12 -60 238 c-65 260 -57
245 -124 232z"/>
<path d="M10244 972 c-151 -233 -148 -222 -73 -236 33 -6 36 -4 58 34 12 21
25 41 29 44 4 2 48 -5 97 -17 l90 -22 3 -52 3 -53 42 -10 c23 -6 47 -13 54
-15 8 -3 11 5 8 23 -3 15 -14 119 -25 232 -29 289 -23 266 -75 279 -24 6 -50
11 -57 11 -7 0 -76 -98 -154 -218z m189 -20 c4 -82 3 -92 -12 -88 -9 3 -38 10
-64 17 -26 6 -47 15 -45 19 2 4 25 44 53 88 29 48 52 76 56 69 4 -7 9 -54 12
-105z"/>
<path d="M10834 983 c-72 -237 -111 -379 -106 -384 6 -6 79 -28 313 -95 11 -3
19 7 27 33 6 20 10 39 8 41 -2 2 -54 18 -115 36 -62 19 -114 35 -116 37 -2 3
22 92 54 199 64 213 64 199 -6 214 l-32 7 -27 -88z"/>
<path d="M4253 1019 c-18 -5 -33 -15 -33 -21 0 -11 129 -448 136 -459 4 -7 78
12 88 22 5 5 -20 92 -105 372 -17 55 -35 97 -42 96 -7 0 -27 -5 -44 -10z"/>
<path d="M5515 10636 c-39 -17 -80 -65 -95 -111 -26 -78 15 -171 92 -211 27
-14 29 -14 38 12 17 44 40 193 40 260 0 60 -1 64 -22 64 -13 -1 -37 -7 -53
-14z"/>
<path d="M9721 10001 c-30 -79 -71 -215 -71 -238 0 -18 74 -17 109 2 66 34
108 118 92 185 -15 65 -61 130 -92 130 -4 0 -21 -35 -38 -79z"/>
</g>
</svg>
